<svg width="41" height="40" viewBox="0 0 41 40" fill="none"
    xmlns="http://www.w3.org/2000/svg">
    <g clip-path="url(#clip0_8_86)">
        <path d="M30.9583 0H9.70834C4.53067 0 0.333344 4.19733 0.333344 9.375V30.625C0.333344 35.8027 4.53067 40 9.70834 40H30.9583C36.136 40 40.3333 35.8027 40.3333 30.625V9.375C40.3333 4.19733 36.136 0 30.9583 0Z" fill="#5865F2"/>
        <mask id="mask0_8_86" style="mask-type:luminance" maskUnits="userSpaceOnUse" x="4" y="7" width="32" height="26">
            <path d="M4.70834 7.96875H35.9583V32.1766H4.70834V7.96875Z" fill="white"/>
        </mask>
        <g mask="url(#mask0_8_86)">
            <path xmlns="http://www.w3.org/2000/svg" fill-rule="evenodd" clip-rule="evenodd" d="M20 40.0024C31.0457 40.0024 40 31.0481 40 20.0024C40 8.95675 31.0457 0.00244141 20 0.00244141C8.9543 0.00244141 0 8.95675 0 20.0024C0 31.0481 8.9543 40.0024 20 40.0024ZM33.3333 26.3358V15.4798L20.464 22.2211C20.3208 22.2961 20.1616 22.3353 20 22.3353C19.8384 22.3353 19.6792 22.2961 19.536 22.2211L6.66667 15.4798V26.3358L6.67333 26.5811C6.736 27.6862 7.21916 28.7254 8.02369 29.4855C8.82823 30.2457 9.89315 30.6692 11 30.6691H29L29.2453 30.6624C30.3504 30.5998 31.3896 30.1166 32.1498 29.3121C32.9099 28.5075 33.3334 27.4426 33.3333 26.3358ZM31.9067 10.4548C31.11 9.73444 30.0741 9.33565 29 9.33578H11L10.752 9.34244C9.72224 9.40136 8.74727 9.82565 8.00233 10.5391C7.2574 11.2525 6.79136 12.2082 6.688 13.2344L20 20.2078L33.312 13.2344C33.2043 12.1658 32.7035 11.1752 31.9067 10.4548Z" fill="#F8F9FF"/>

        </g>
    </g>
    <defs>
        <clipPath id="clip0_8_86">
            <rect width="40" height="40" fill="white" transform="translate(0.333344)"/>
        </clipPath>
    </defs>
</svg>
