<svg width="41" height="40" viewBox="0 0 41 40" fill="none" xmlns="http://www.w3.org/2000/svg">
<g clip-path="url(#clip0_330_605)">
<path d="M31.2915 0H10.0415C4.86383 0 0.666504 4.19733 0.666504 9.375V30.625C0.666504 35.8027 4.86383 40 10.0415 40H31.2915C36.4692 40 40.6665 35.8027 40.6665 30.625V9.375C40.6665 4.19733 36.4692 0 31.2915 0Z" fill="#58BBF2"/>
<path d="M31.6129 9.20305C31.6129 9.20305 34.2031 8.20748 33.9872 10.6253C33.9153 11.6209 33.2677 15.1054 32.7641 18.8744L31.0373 30.039C31.0373 30.039 30.8934 31.6746 29.5983 31.959C28.3031 32.2435 26.3605 30.9635 26.0007 30.679C25.7129 30.4657 20.6045 27.2656 18.8057 25.7011C18.3021 25.2745 17.7265 24.4211 18.8777 23.4255L26.4325 16.3143C27.2959 15.461 28.1593 13.4698 24.5617 15.8876L14.4887 22.6433C14.4887 22.6433 13.3375 23.3544 11.1791 22.7144L6.50228 21.2922C6.50228 21.2922 4.77547 20.2255 7.72543 19.1588C14.9205 15.8165 23.7703 12.4031 31.6129 9.20305Z" fill="white"/>
</g>
<defs>
<clipPath id="clip0_330_605">
<rect width="40" height="40" fill="white" transform="translate(0.666504)"/>
</clipPath>
</defs>
</svg>
