<svg width="40" height="40" viewBox="0 0 40 40" fill="none" xmlns="http://www.w3.org/2000/svg">
<g clip-path="url(#clip0_330_584)">
<path d="M30.625 0H9.375C4.19733 0 0 4.19733 0 9.375V30.625C0 35.8027 4.19733 40 9.375 40H30.625C35.8027 40 40 35.8027 40 30.625V9.375C40 4.19733 35.8027 0 30.625 0Z" fill="white"/>
<path d="M30.625 0H9.375C4.19733 0 0 4.19733 0 9.375V30.625C0 35.8027 4.19733 40 9.375 40H30.625C35.8027 40 40 35.8027 40 30.625V9.375C40 4.19733 35.8027 0 30.625 0Z" fill="#2A2A2A"/>
<path d="M7.0657 7L17.4901 20.7889L7 32H9.36108L18.5453 22.1843L25.9657 32H34L22.9889 17.4356L32.7531 7H30.392L21.934 16.0398L15.1 7H7.0657ZM10.5378 8.72037H14.2287L30.5275 30.2796H26.8365L10.5378 8.72037Z" fill="white"/>
</g>
<defs>
<clipPath id="clip0_330_584">
<rect width="40" height="40" fill="white"/>
</clipPath>
</defs>
</svg>
